<?xml version="1.0" encoding="utf-8"?>
<!-- Generator: Adobe Illustrator 18.0.0, SVG Export Plug-In . SVG Version: 6.00 Build 0)  -->
<!DOCTYPE svg PUBLIC "-//W3C//DTD SVG 1.1//EN" "http://www.w3.org/Graphics/SVG/1.1/DTD/svg11.dtd">
<svg version="1.1" id="Layer_1" xmlns="http://www.w3.org/2000/svg" xmlns:xlink="http://www.w3.org/1999/xlink" x="0px" y="0px"
	 viewBox="0 0 72 72" enable-background="new 0 0 72 72" xml:space="preserve">
<g>
	<path fill="#383838" d="M65.3,45.1c-2,3.4-4.3,6.5-6.7,9.3C48.3,66.2,36,72.1,36,72.1s-1.2-0.6-3.2-1.7l4.3-13.7l5.4-20.9
		l10.2,14.6L62.9,38L65.3,45.1z"/>
	<path fill="#383838" d="M72.3,20.1c0,5.9-3.1,16.1-4.8,21L63.2,30l-9.9,11.7l-12-20.8l-10.1,37L17.8,6.4L5.4,42.8
		C2,36.3-0.3,28.8-0.3,20.1c0-11.2,9-20.2,20.2-20.2c6.6,0,12.4,3.1,16.1,8h0c3.7-4.9,9.5-8,16.1-8C63.2-0.1,72.3,8.9,72.3,20.1z"/>
	<path fill="#383838" d="M27.8,67.2c-3.3-2.2-6.2-4.4-10.3-8.5c-2.8-2.7-5.6-5.9-8.2-9.5l8.5-26.1L27.8,67.2z"/>
	<path fill="#383838" d="M42.5,35.7"/>
</g>
</svg>
