<?xml version="1.0" encoding="utf-8"?>
<!-- Generator: Adobe Illustrator 18.0.0, SVG Export Plug-In . SVG Version: 6.00 Build 0)  -->
<!DOCTYPE svg PUBLIC "-//W3C//DTD SVG 1.1//EN" "http://www.w3.org/Graphics/SVG/1.1/DTD/svg11.dtd">
<svg version="1.1" id="Layer_1" xmlns="http://www.w3.org/2000/svg" xmlns:xlink="http://www.w3.org/1999/xlink" x="0px" y="0px"
	 viewBox="0 0 72 72" enable-background="new 0 0 72 72" xml:space="preserve">
<g>
	<path fill="#383838" d="M66.4,31.9c0-0.3,0-0.7,0-1c0-0.2,0-0.3,0-0.5c-0.3-9.6-8.4-17.2-18.4-17.2c-4.6,0-8.9,1.6-12.1,4.4
		c-3-2.1-6.8-3.4-10.8-3.4c-9.6,0-17.6,7.2-18.3,16.3c0,0.5-0.1,1-0.1,1.5c0,13.7,4.5,39.9,22.1,39.9c2.7,0,3.4-2.2,6.9-2.2
		c3.5,0,4.6,2.2,7.6,2.2C58.1,71.8,66.5,45.6,66.4,31.9L66.4,31.9z M54,31.1c-2.5,0-4.6-2.1-4.6-4.6c0-2.5,2.1-4.6,4.6-4.6
		c2.5,0,4.6,2,4.6,4.6C58.6,29.1,56.5,31.1,54,31.1z"/>
	<line fill="none" x1="6.8" y1="30.4" x2="6.8" y2="30.4"/>
	<line fill="none" x1="52.3" y1="30.4" x2="46.6" y2="30.4"/>
	<polygon fill="#383838" points="34.1,14.4 40,-0.3 43.5,0.7 38.2,14.7 	"/>
	<path fill="#383838" d="M33.7,12.1c0,0-10.4,3.6-10.6-6.9C32.8,1.2,33.7,12.1,33.7,12.1z"/>
</g>
</svg>
