<?xml version="1.0" encoding="utf-8"?>
<!-- Generator: Adobe Illustrator 18.0.0, SVG Export Plug-In . SVG Version: 6.00 Build 0)  -->
<!DOCTYPE svg PUBLIC "-//W3C//DTD SVG 1.1//EN" "http://www.w3.org/Graphics/SVG/1.1/DTD/svg11.dtd">
<svg version="1.1" id="Layer_1" xmlns="http://www.w3.org/2000/svg" xmlns:xlink="http://www.w3.org/1999/xlink" x="0px" y="0px"
	 viewBox="0 0 72 72" enable-background="new 0 0 72 72" xml:space="preserve">
<g>
	<g>
		<line fill="#383838" x1="1.5" y1="53.7" x2="18.4" y2="70.6"/>
		<path fill="#383838" d="M11.6,70.7L1.5,60.6c-1.9-1.9-1.9-4.9,0-6.8l0,0c1.9-1.9,4.9-1.9,6.8,0l10.1,10.1c1.9,1.9,1.9,4.9,0,6.8
			l0,0C16.5,72.5,13.5,72.6,11.6,70.7z"/>
	</g>
	<g>
		<line fill="#383838" x1="1.5" y1="35.8" x2="36.5" y2="70.6"/>
		<path fill="#383838" d="M29.8,70.7l-28.2-28c-1.9-1.9-1.9-4.9-0.1-6.8l0,0c1.8-1.9,4.9-1.9,6.8-0.1l28.2,28
			c1.9,1.9,1.9,4.9,0.1,6.8h0C34.7,72.5,31.7,72.6,29.8,70.7z"/>
	</g>
	<g>
		<line fill="#383838" x1="53.5" y1="1.4" x2="70.5" y2="18.5"/>
		<path fill="#383838" d="M63.7,18.5L53.5,8.3c-1.9-1.9-1.9-4.9,0-6.8l0,0c1.9-1.9,4.9-1.9,6.8,0l10.2,10.2c1.9,1.9,1.9,4.9,0,6.8
			l0,0C68.6,20.4,65.6,20.4,63.7,18.5z"/>
	</g>
	<g>
		<line fill="#383838" x1="36.5" y1="1.4" x2="70.5" y2="35.8"/>
		<path fill="#383838" d="M63.7,35.8L36.5,8.3c-1.9-1.9-1.9-5,0-6.8l0,0c1.9-1.9,4.9-1.9,6.8,0L70.5,29c1.9,1.9,1.9,5,0,6.8l0,0
			C68.6,37.7,65.6,37.7,63.7,35.8z"/>
	</g>
	<g>
		<line fill="#383838" x1="24.8" y1="46.8" x2="45.8" y2="25.2"/>
		<polygon fill="#383838" points="28.2,50.2 21.3,43.4 42.4,21.8 49.2,28.6 		"/>
	</g>
</g>
</svg>
