<?xml version="1.0" encoding="utf-8"?>
<!-- Generator: Adobe Illustrator 18.0.0, SVG Export Plug-In . SVG Version: 6.00 Build 0)  -->
<!DOCTYPE svg PUBLIC "-//W3C//DTD SVG 1.1//EN" "http://www.w3.org/Graphics/SVG/1.1/DTD/svg11.dtd">
<svg version="1.1" id="Layer_1" xmlns="http://www.w3.org/2000/svg" xmlns:xlink="http://www.w3.org/1999/xlink" x="0px" y="0px"
	 viewBox="0 0 72 72" enable-background="new 0 0 72 72" xml:space="preserve">
<g>
	<ellipse fill="#383838" cx="19" cy="27.3" rx="19.7" ry="15.6"/>
	<ellipse fill="#383838" cx="22.6" cy="21.4" rx="14.3" ry="14.2"/>
	<rect x="56.9" y="0.1" fill="#383838" width="1.8" height="4.9"/>
	<rect x="56.9" y="23.4" fill="#383838" width="1.8" height="4.9"/>
	<rect x="67" y="13.3" fill="#383838" width="4.9" height="1.8"/>
	<rect x="43.7" y="13.3" fill="#383838" width="4.9" height="1.8"/>
	
		<rect x="48.7" y="3.6" transform="matrix(-0.7071 0.7071 -0.7071 -0.7071 88.9173 -24.7156)" fill="#383838" width="1.8" height="4.9"/>
	
		<rect x="65.2" y="20.1" transform="matrix(-0.7071 0.7071 -0.7071 -0.7071 128.7021 -8.297)" fill="#383838" width="1.8" height="4.9"/>
	
		<rect x="65.2" y="3.6" transform="matrix(0.7071 0.7071 -0.7071 0.7071 23.6346 -44.9439)" fill="#383838" width="1.8" height="4.9"/>
	
		<rect x="48.7" y="20.1" transform="matrix(0.7071 0.7071 -0.7071 0.7071 30.4354 -28.4645)" fill="#383838" width="1.8" height="4.9"/>
	<path fill="#383838" d="M15,45.6c0-0.6,2.3,1.9,7.6-0.1v22.6l4.2,3.7l-9.3-1l-6.5,1l4-5.6L15,45.6z"/>
	<circle fill="#383838" cx="57.8" cy="14.2" r="8.1"/>
	<path fill="#383838" d="M51.9,42c0,0-6.4,9.8,7.4,13.4s9.1,16.5,9.1,16.5h-37c0,0,15.8-11,7.9-17.2S45.2,42,45.2,42"/>
</g>
</svg>
