<?xml version="1.0" encoding="utf-8"?>
<!-- Generator: Adobe Illustrator 18.0.0, SVG Export Plug-In . SVG Version: 6.00 Build 0)  -->
<!DOCTYPE svg PUBLIC "-//W3C//DTD SVG 1.1//EN" "http://www.w3.org/Graphics/SVG/1.1/DTD/svg11.dtd">
<svg version="1.1" id="Layer_1" xmlns="http://www.w3.org/2000/svg" xmlns:xlink="http://www.w3.org/1999/xlink" x="0px" y="0px"
	 viewBox="0 0 72 72" enable-background="new 0 0 72 72" xml:space="preserve">
<g>
	<g>
		<path fill="#383838" d="M21.6,20.8V40h30.5V20.8H21.6z M45.4,35H28v-9.1h17.4V35z"/>
		<rect x="19.9" y="42.4" fill="#383838" width="33.9" height="3"/>
		<path fill="#383838" d="M49,53.2l0.6-0.2c-0.1,0.1-0.1,0.2-0.2,0.3L49,53.2z"/>
		<path fill="none" d="M10.3,51.8"/>
		<path fill="none" d="M12.6,54.8"/>
		<path fill="none" d="M56.2,54.8"/>
		<path fill="none" d="M58.5,51.8"/>
		<path fill="#F6EB16" d="M49.5,53c-0.1,0.1-0.1,0.2-0.2,0.3L49,53.2L49.5,53z"/>
		<path fill="#FFFFFF" d="M49.5,53c-0.1,0.1-0.1,0.2-0.2,0.3L49,53.2L49.5,53z"/>
		<path fill="#383838" d="M36.1,68.3l5.3,3.7h-9.7c0,0,0,0,0-0.1v0L36.1,68.3z"/>
		<path fill="#383838" d="M45.4,60.7c-1.2,3.3-2.2,6.5-2.8,8.7l-4.2-3L45.4,60.7z"/>
		<path fill="#383838" d="M34.3,52.4l-7.7,4.1c-1.9-4.3-4.1-8.1-6.6-9.5h2.9L34.3,52.4z"/>
		<path fill="#383838" d="M29.2,63.5l4.2,2.9l-2.6,2.1C30.3,67.1,29.8,65.4,29.2,63.5z"/>
		<polygon fill="#383838" points="44.6,57.2 35.7,64.5 28,59 37.5,53.9 		"/>
		<polygon fill="#383838" points="44.3,47.1 38,50.5 30.7,47.1 		"/>
		<path fill="#383838" d="M53.7,47.1c-2.2,1.2-4.2,4.3-6,8L41.2,52l9.2-4.9H53.7z"/>
	</g>
	<path fill="#383838" d="M72.3,12.7c-2.1-7.1-17.4-12.6-36-12.6S2.4,5.6,0.3,12.7H0v41.3h20.1l-3.3-6H8.2v-32h0.2
		c1.6-5.5,13.5-9.7,27.9-9.7c14.4,0,26.3,4.3,27.9,9.7c0.1,0.4,0.2,0.8,0.2,1.3v30.7h-9.2l-2,6h19.3V14.3
		C72.5,13.8,72.5,13.2,72.3,12.7z"/>
	<line fill="none" x1="20.7" y1="54.8" x2="17.4" y2="48.8"/>
	<line fill="none" x1="55.8" y1="48.8" x2="53.8" y2="54.8"/>
</g>
</svg>
