<?xml version="1.0" encoding="utf-8"?>
<!-- Generator: Adobe Illustrator 18.0.0, SVG Export Plug-In . SVG Version: 6.00 Build 0)  -->
<!DOCTYPE svg PUBLIC "-//W3C//DTD SVG 1.1//EN" "http://www.w3.org/Graphics/SVG/1.1/DTD/svg11.dtd">
<svg version="1.1" id="Layer_1" xmlns="http://www.w3.org/2000/svg" xmlns:xlink="http://www.w3.org/1999/xlink" x="0px" y="0px"
	 viewBox="0 0 72 72" enable-background="new 0 0 72 72" xml:space="preserve">
<g>
	<polygon fill="#383838" points="45.1,52.3 45.1,55.5 26.9,55.5 26.9,52.3 36,55 	"/>
	<circle fill="#383838" cx="36" cy="9.3" r="9.1"/>
	<path fill="#383838" d="M59.5,58.2l-6.4,1.9L36,65.2l-20.1,5.9c-2.4,0.7-4.8-0.1-5.6-1.9l-1-2.3c-0.9-1.9,0.6-4.2,3.2-5l6.4-1.9
		l15.5-4.6L36,55l9.1-2.7l11-3.3c2.4-0.7,4.8,0.1,5.6,1.9l1,2.3C63.6,55.2,62.1,57.5,59.5,58.2z"/>
	<path fill="#383838" d="M62.8,67l-1,2.3c-0.8,1.8-3.2,2.6-5.6,1.9L36,65.2l-17.2-5.1l-6.4-1.9c-2.6-0.8-4.1-3-3.2-5l1-2.3
		c0.8-1.8,3.2-2.6,5.6-1.9l11,3.3L36,55l1.7,0.5l15.4,4.6l6.4,1.9C62.1,62.8,63.6,65,62.8,67z"/>
	<g>
		<path fill="#383838" d="M60,43.1l-7,1l-0.5,0.1c-0.2,0-0.3,0-0.5,0c-0.2,0-0.4,0-0.6,0h0l-0.3,0c-0.2,0-0.4-0.1-0.6-0.1
			c-0.1,0-0.2,0-0.3-0.1c-0.2,0-0.4-0.1-0.5-0.2c-0.1,0-0.2-0.1-0.3-0.1c-0.2-0.1-0.4-0.3-0.6-0.4c0,0-0.1-0.1-0.2-0.1
			c-0.1-0.1-0.2-0.2-0.3-0.3c-0.1-0.1-0.2-0.3-0.3-0.4L47.9,42c0,0,0,0,0-0.1l-0.1-0.1l-2.7-4.3v14.8L36,55l-9.1-2.7v-15l-2.6,4.2
			c0,0,0,0,0,0l-0.1,0.1c0,0,0,0,0,0.1L24,42c-0.1,0.2-0.2,0.3-0.3,0.4c-0.1,0.1-0.2,0.2-0.3,0.3c-0.1,0.1-0.1,0.1-0.2,0.1
			c-0.2,0.2-0.4,0.3-0.6,0.4c-0.1,0-0.2,0.1-0.3,0.1c-0.2,0.1-0.3,0.2-0.5,0.2c-0.1,0-0.2,0.1-0.3,0.1c-0.2,0-0.4,0.1-0.6,0.1
			l-0.3,0h-0.1c-0.2,0-0.4,0-0.6,0c-0.1,0-0.2,0-0.2,0L19,43.8l-7-1c-2.1-0.3-3.6-2.1-3.1-3.9l0-0.2c0.4-1.8,2.3-2.9,4.4-2.6
			l4.2,0.6v0l9.3-14.8c0,0,0.1-0.1,0.1-0.2h18.2c0.1,0.1,0.1,0.1,0.1,0.2l9.3,15l4.2-0.6c2-0.3,4,0.9,4.4,2.6l0.1,0.3
			C63.6,41,62.1,42.8,60,43.1z"/>
		<path fill="#383838" d="M24.3,41.6c-0.5,1.6-2.4,2.6-4.3,2.3l-0.3,0c0.1,0,0.2,0,0.2,0c0.2,0,0.4,0,0.6,0h0.1l0.3,0
			c0.2,0,0.4-0.1,0.6-0.1c0.1,0,0.2-0.1,0.3-0.1c0.2,0,0.4-0.1,0.5-0.2c0.1,0,0.2-0.1,0.3-0.1c0.2-0.1,0.4-0.3,0.6-0.4
			c0.1,0,0.1-0.1,0.2-0.1c0.1-0.1,0.2-0.2,0.3-0.3c0.1-0.1,0.2-0.3,0.3-0.4l0.1-0.2c0,0,0,0,0-0.1L24.3,41.6z"/>
	</g>
	<g>
		<path fill="#383838" d="M52.6,44.1L52,44.2c-2,0.3-3.8-0.8-4.3-2.4l0.1,0.1c0,0,0,0,0,0.1l0.1,0.2c0.1,0.2,0.2,0.3,0.3,0.4
			c0.1,0.1,0.2,0.2,0.3,0.3c0.1,0.1,0.1,0.1,0.2,0.1c0.2,0.2,0.4,0.3,0.6,0.4c0.1,0.1,0.2,0.1,0.3,0.1c0.2,0.1,0.3,0.2,0.5,0.2
			c0.1,0,0.2,0.1,0.3,0.1c0.2,0.1,0.4,0.1,0.6,0.1l0.3,0h0c0.2,0,0.4,0,0.6,0C52.3,44.2,52.4,44.2,52.6,44.1z"/>
	</g>
	<path fill="#383838" d="M14.5,29.4c-5.1-5.5-8-12.6-8-20.1c0-3.4,0.2-5.8,1.4-9h5.4c-1,2.7-1.8,6.1-1.8,9c0,6.2,2.3,12.2,6.6,16.7
		L14.5,29.4z"/>
	<path fill="#383838" d="M57.5,29.5L53.8,26c4.3-4.5,6.6-10.5,6.6-16.7c0-2.8-0.8-6.3-1.8-8.9h5c1.1,3.1,1.8,5.5,1.8,8.9
		C65.4,16.8,62.6,24,57.5,29.5z"/>
</g>
</svg>
