<?xml version="1.0" encoding="utf-8"?>
<!-- Generator: Adobe Illustrator 18.0.0, SVG Export Plug-In . SVG Version: 6.00 Build 0)  -->
<!DOCTYPE svg PUBLIC "-//W3C//DTD SVG 1.1//EN" "http://www.w3.org/Graphics/SVG/1.1/DTD/svg11.dtd">
<svg version="1.1" id="Layer_1" xmlns="http://www.w3.org/2000/svg" xmlns:xlink="http://www.w3.org/1999/xlink" x="0px" y="0px"
	 viewBox="0 0 72 72" enable-background="new 0 0 72 72" xml:space="preserve">
<g>
	<path fill="#383838" d="M11.1,15.5v37.4h55.1V15.5H11.1z M53.6,40.2c0,4.8-3.9,8.8-8.8,8.8H24.9c-4.8,0-8.8-4-8.8-8.8V29.3
		c0-4.8,3.9-8.8,8.8-8.8h19.9c4.8,0,8.8,4,8.8,8.8V40.2z M60.1,37c-1.9,0-3.5-1.6-3.5-3.5c0-1.9,1.6-3.5,3.5-3.5
		c1.9,0,3.5,1.6,3.5,3.5C63.6,35.4,62.1,37,60.1,37z M60.1,28.7c-1.9,0-3.5-1.6-3.5-3.5c0-1.9,1.6-3.5,3.5-3.5
		c1.9,0,3.5,1.6,3.5,3.5C63.6,27.2,62.1,28.7,60.1,28.7z"/>
	<rect x="2.2" y="55.4" fill="#383838" width="71.5" height="4.4"/>
	<path fill="#383838" d="M23.5,4.1c0,0-0.1-0.1-0.1-0.1l-0.7-1.2L23.5,4.1z"/>
	<path fill="#383838" d="M48.6,2.2l-9.7,11.8h-3.5l-5.9-9.8l0,0l-0.8-1.3l-0.6-1c-0.4-0.7-0.2-1.6,0.5-2l0.4-0.2
		c0.7-0.4,1.6-0.2,2,0.5l0.7,1.2l0,0l5.5,8.8L46-0.1c0.5-0.6,1.5-0.7,2.1-0.2l0.4,0.3C49,0.6,49.1,1.6,48.6,2.2z"/>
	<path fill="none" stroke="#383838" stroke-miterlimit="10" d="M19,11.1"/>
	<path fill="#383838" d="M42.9,62.3v9.4h30.6v-9.4H42.9z M63.8,66.6c0,0.7-0.6,1.3-1.3,1.3H47.8c-0.7,0-1.3-0.6-1.3-1.3v-0.9
		c0-0.7,0.6-1.3,1.3-1.3h14.7c0.7,0,1.3,0.6,1.3,1.3V66.6z"/>
	<rect x="2.2" y="62.3" fill="#383838" width="35.8" height="9.4"/>
</g>
</svg>
