<?xml version="1.0" encoding="utf-8"?>
<!-- Generator: Adobe Illustrator 18.0.0, SVG Export Plug-In . SVG Version: 6.00 Build 0)  -->
<!DOCTYPE svg PUBLIC "-//W3C//DTD SVG 1.1//EN" "http://www.w3.org/Graphics/SVG/1.1/DTD/svg11.dtd">
<svg version="1.1" id="Layer_1" xmlns="http://www.w3.org/2000/svg" xmlns:xlink="http://www.w3.org/1999/xlink" x="0px" y="0px"
	 viewBox="0 0 72 72" enable-background="new 0 0 72 72" xml:space="preserve">
<g>
	<polygon fill="#383838" points="63.4,71.9 72.3,71.9 72.3,39.8 36.4,39.8 36.4,71.9 45.1,71.9 45.1,49.9 63.4,49.9 	"/>
	<path fill="#383838" d="M0.2,52.4l0.1,13.6c0,3.3,2.4,5.9,5.2,5.9h20.2c2.9,0,5.2-2.7,5.2-6V52.4c0-3.3-2.3-6-5.2-6H5.4
		C2.5,46.4,0.2,49.1,0.2,52.4z"/>
	<path fill="#383838" d="M36.3,0v29.9h36V0H36.3z M68.3,25.4h-28v-21h28V25.4z"/>
	<path fill="#383838" d="M63.6,37.1c-2.1-3.3-5.5-5.4-9.3-5.4c-3.8,0-7.2,2.1-9.3,5.4L63.6,37.1z"/>
	<path fill="#383838" d="M23.5,41.2v2.8H19v-0.9c0-0.6-0.5-1.1-1.1-1.1l-3.8,0c-0.6,0-1.1,0.5-1.1,1.1v0.9H8.5v-2.8
		c0-1.6,1.2-2.8,2.7-2.8h9.6C22.3,38.4,23.5,39.6,23.5,41.2z"/>
</g>
</svg>
