<?xml version="1.0" encoding="utf-8"?>
<!-- Generator: Adobe Illustrator 18.0.0, SVG Export Plug-In . SVG Version: 6.00 Build 0)  -->
<!DOCTYPE svg PUBLIC "-//W3C//DTD SVG 1.1//EN" "http://www.w3.org/Graphics/SVG/1.1/DTD/svg11.dtd">
<svg version="1.1" id="Layer_1" xmlns="http://www.w3.org/2000/svg" xmlns:xlink="http://www.w3.org/1999/xlink" x="0px" y="0px"
	 viewBox="0 0 72 72" enable-background="new 0 0 72 72" xml:space="preserve">
<g>
	<path fill="#383838" d="M55.3,0H18c-4.6,0-8.3,3.7-8.3,8.3v40.7c0,4.6,3.7,8.3,8.3,8.3h37.3c4.6,0,8.3-3.7,8.3-8.3V8.3
		C63.7,3.8,59.9,0,55.3,0z M18.2,8.2h36.5v20.6H18.2V8.2z M18.8,47.2c-2.7,0-4.9-2.2-4.9-4.9c0-2.7,2.2-4.9,4.9-4.9
		c2.7,0,4.9,2.2,4.9,4.9C23.7,45,21.5,47.2,18.8,47.2z M54.8,47.2c-2.7,0-4.9-2.2-4.9-4.9c0-2.7,2.2-4.9,4.9-4.9
		c2.7,0,4.9,2.2,4.9,4.9C59.7,45,57.6,47.2,54.8,47.2z"/>
	<g>
		<rect x="18" y="66.7" fill="#383838" width="39.1" height="3.8"/>
		<rect x="22.2" y="61.1" fill="#383838" width="28.9" height="2.6"/>
		<polygon fill="#383838" points="18.4,72 27.8,58.9 22.4,58.9 8.1,72 		"/>
		<polygon fill="#383838" points="55,72 45.6,58.9 51,58.9 65.3,72 		"/>
	</g>
</g>
</svg>
