<?xml version="1.0" encoding="utf-8"?>
<!-- Generator: Adobe Illustrator 18.0.0, SVG Export Plug-In . SVG Version: 6.00 Build 0)  -->
<!DOCTYPE svg PUBLIC "-//W3C//DTD SVG 1.1//EN" "http://www.w3.org/Graphics/SVG/1.1/DTD/svg11.dtd">
<svg version="1.1" id="Layer_1" xmlns="http://www.w3.org/2000/svg" xmlns:xlink="http://www.w3.org/1999/xlink" x="0px" y="0px"
	 viewBox="0 0 72 72" enable-background="new 0 0 72 72" xml:space="preserve">
<g>
	<path fill="#383838" d="M55.6,0H16.4c-4.8,0-8.7,3.7-8.7,8.2v40.1c0,4.5,3.9,8.2,8.7,8.2h39.2c4.8,0,8.7-3.7,8.7-8.2V8.1
		C64.3,3.7,60.4,0,55.6,0z M18.1,52.4c-2.4,0-4.4-2-4.4-4.4c0-2.5,2-4.4,4.4-4.4s4.4,2,4.4,4.4C22.5,50.4,20.6,52.4,18.1,52.4z
		 M45.6,49.2c0,0.6-0.5,1.2-1.2,1.2H27.5c-0.6,0-1.1-0.5-1.1-1.2v-0.1c0-0.6,0.5-1.1,1.1-1.1h16.9C45.1,48,45.6,48.5,45.6,49.2
		L45.6,49.2z M45.6,45c0,0.6-0.5,1.2-1.2,1.2H27.5c-0.6,0-1.1-0.5-1.1-1.2v-0.1c0-0.6,0.5-1.2,1.1-1.2h16.9
		C45.1,43.7,45.6,44.3,45.6,45L45.6,45z M53.9,52.4c-2.5,0-4.4-2-4.4-4.4c0-2.5,2-4.4,4.4-4.4c2.4,0,4.4,2,4.4,4.4
		C58.3,50.4,56.3,52.4,53.9,52.4z M58.6,28.4H13.4V5.2h45.2V28.4z"/>
	<path fill="#383838" d="M13.4,62.4v5.4c0,2.3,1.7,4.2,3.8,4.2h0c2.1,0,3.8-1.9,3.8-4.2v-5.4c0-2.3-1.7-4.2-3.8-4.2h0
		C15.1,58.2,13.4,60.1,13.4,62.4z"/>
	<path fill="#383838" d="M54.5,58.2L54.5,58.2c-2.1,0-3.8,1.9-3.8,4.3v5.3c0,2.4,1.7,4.3,3.8,4.3h0c2.1,0,3.8-1.9,3.8-4.3v-5.3
		C58.3,60.1,56.6,58.2,54.5,58.2z"/>
</g>
</svg>
