<?xml version="1.0" encoding="utf-8"?>
<!-- Generator: Adobe Illustrator 18.0.0, SVG Export Plug-In . SVG Version: 6.00 Build 0)  -->
<!DOCTYPE svg PUBLIC "-//W3C//DTD SVG 1.1//EN" "http://www.w3.org/Graphics/SVG/1.1/DTD/svg11.dtd">
<svg version="1.1" id="Layer_1" xmlns="http://www.w3.org/2000/svg" xmlns:xlink="http://www.w3.org/1999/xlink" x="0px" y="0px"
	 viewBox="0 0 72 72" enable-background="new 0 0 72 72" xml:space="preserve">
<g>
	<path fill="#383838" d="M36.5,43.3v28.5c-1.9-0.6-3.3-2.3-3.3-4.4V47.6C33.2,45.6,34.6,43.8,36.5,43.3z"/>
	<rect x="38.4" y="43" fill="#383838" width="1.6" height="28.9"/>
	<path fill="#383838" d="M67.3,43H41.8V72h25.5c2.6,0,4.6-2.1,4.6-4.6V47.6C72,45.1,69.9,43,67.3,43z M63.6,54.2l-2.3,3.2l-0.6-3.9
		l-3.8-1.2l3.6-1.8l0-3.9l2.8,2.8l3.8-1.2l-1.8,3.5l2.4,3.2L63.6,54.2z"/>
	<path fill="#383838" d="M25,29.3H4.3c-2.4,0-4.3,1.9-4.3,4.3v29.5c0,2.1,1.5,3.8,3.5,4.2c0.3,0.1,0.6,0.1,0.9,0.1H25
		c0.3,0,0.6,0,0.9-0.1c2-0.4,3.4-2.1,3.4-4.2V33.7C29.3,31.3,27.4,29.3,25,29.3z M14.9,31.9l9.5,1.5l-0.9,5.3L14,37.2L14.9,31.9z
		 M13.2,48.2l-1.9-4.8l9.1-3.5l1.9,4.8L13.2,48.2z"/>
	<g>
		<path fill="#383838" d="M6.8,72H4.9c-0.8,0-1.5-0.7-1.5-1.5v-3.8c0-0.8,0.7-1.5,1.5-1.5h1.8c0.8,0,1.5,0.7,1.5,1.5v3.8
			C8.2,71.3,7.6,72,6.8,72z"/>
		<path fill="#383838" d="M24.5,72h-2c-0.8,0-1.5-0.7-1.5-1.5v-3.8c0-0.8,0.7-1.5,1.5-1.5h2c0.8,0,1.5,0.7,1.5,1.5v3.8
			C25.9,71.3,25.3,72,24.5,72z"/>
	</g>
	<rect x="9" y="2.4" fill="#383838" width="3" height="26.2"/>
	<rect x="17.3" y="2.4" fill="#383838" width="3" height="26.2"/>
	<rect x="8.4" y="0" fill="#383838" width="12.6" height="2.9"/>
	<path fill="none" stroke="#383838" stroke-width="3" stroke-miterlimit="10" d="M47.2,43v-2.4c0-1,0.6-1.8,1.4-1.8h8
		c0.8,0,1.4,0.8,1.4,1.8V43"/>
	<line fill="none" x1="40" y1="72" x2="40" y2="43"/>
	<line fill="none" x1="41.8" y1="72" x2="41.8" y2="43"/>
	<line fill="none" x1="36.5" y1="71.7" x2="36.5" y2="43.3"/>
	<line fill="none" x1="38.4" y1="72" x2="38.4" y2="43"/>
</g>
</svg>
