<?xml version="1.0" encoding="utf-8"?>
<!-- Generator: Adobe Illustrator 18.0.0, SVG Export Plug-In . SVG Version: 6.00 Build 0)  -->
<!DOCTYPE svg PUBLIC "-//W3C//DTD SVG 1.1//EN" "http://www.w3.org/Graphics/SVG/1.1/DTD/svg11.dtd">
<svg version="1.1" id="Layer_1" xmlns="http://www.w3.org/2000/svg" xmlns:xlink="http://www.w3.org/1999/xlink" x="0px" y="0px"
	 viewBox="0 0 72 72" enable-background="new 0 0 72 72" xml:space="preserve">
<g>
	<path fill="#383838" d="M66.6,44.8l-0.2,0.1c-0.5,0.2-1,0-1.3-0.4l-2.6-4.2c-0.2-0.3-0.2-0.8,0-1.1l0.7-1.4
		c0.2-0.4,0.2-0.9-0.2-1.3c-2.7-2.7-6.2-4.5-10.1-5.1c-0.3,0-0.6,0-0.8,0.2l-1.2,1c-0.4,0.3-0.9,0.3-1.3,0l-1.4-1
		c-0.2-0.2-0.5-0.2-0.8-0.2c-3.9,0.6-7.4,2.4-10.1,5.1c-0.4,0.4-0.4,0.9-0.1,1.3l0.8,1.3c0.2,0.4,0.2,0.8,0,1.2l-2.7,4
		c-0.3,0.5-0.9,0.6-1.4,0.3h0c-0.6-0.3-1.4,0-1.6,0.7c-0.4,1.5-0.6,3-0.6,4.6c0,8.2,5.2,15.2,12.4,17.7c0.5,0.2,1,0,1.3-0.5l0.5-0.9
		c0.2-0.3,0.6-0.5,0.9-0.5h6.3c0.3,0,0.6,0.1,0.8,0.4l1.1,1.3c0.3,0.3,0.7,0.5,1.2,0.3c7.3-2.5,12.5-9.5,12.5-17.8
		c0-1.5-0.2-3-0.5-4.4C67.9,44.9,67.2,44.6,66.6,44.8z M41.6,60.8l-4.2-2.9C37.1,57.7,37,57.3,37,57v-5.2c0-0.5,0.4-1,0.9-1.1
		l3.8-0.6c0.5-0.1,0.9,0.2,1.1,0.6l2.9,5.7c0.2,0.4,0.1,0.8-0.1,1.2l-2.5,3.1C42.7,61,42.1,61.1,41.6,60.8z M45.7,43.4l-1.7-4.2
		c-0.2-0.6,0.1-1.2,0.6-1.4l5.3-2.1c0.3-0.1,0.6-0.1,0.9,0l4.8,2.5c0.5,0.3,0.7,0.9,0.5,1.4l-1.7,3.9c-0.2,0.4-0.6,0.6-1,0.6h-6.7
		C46.3,44.1,45.9,43.8,45.7,43.4z M62.5,58.1l-4.3,2.8c-0.5,0.3-1.1,0.2-1.5-0.3l-2.3-3.2c-0.3-0.3-0.3-0.8-0.1-1.2l3.2-5.6
		c0.2-0.4,0.7-0.6,1.2-0.5l3.5,0.8C62.6,51,63,51.4,63,52v5.2C63,57.5,62.8,57.9,62.5,58.1z M32.2,43.8 M72,50.6
		c0,12-9.6,21.7-21.4,21.7s-21.4-9.7-21.4-21.7s9.6-21.7,21.4-21.7S72,38.7,72,50.6z"/>
	<g>
		<path fill="#383838" d="M0.4-0.3v49.9h30.3c0.2-1.4,0.1-2.7,0.5-4H4.4V3.7h57.8v29.6c1.4,0.5,2.7,2.3,3.9,3.1V-0.3H0.4z"/>
		<path fill="#383838" d="M-0.2-0.3l0.6,2.3l3.8,13.6l0.1,0.4v0l4.2,14.9l2.7,9.7l0.8,3H34c0.6-1.4,1.4-2.8,2.2-4H15.1l-2.5-8.8
			l-1.1-4l-2.1-7.4l-1.1-4L5,3.7h56.5L58,15.5l-1.2,4l-2.2,7.4l-1,3.3l-0.2,0.7h4.1l0.1-0.4l4.5-14.9l0.1-0.3L66.1,2l0.7-2.3H-0.2z"
			/>
		<path fill="#383838" d="M36.2,39.7c-0.9,1.2-1.6,2.6-2.2,4H14.1l-3.6,1.9l-7.2,3.8l-1.8-3.6l2.9-1.5l7-3.6l1.9-1H36.2z"/>
		<path fill="#383838" d="M15.9-0.3l0.6,4l1.9,11.8l0.6,4l1.2,7.4l0.6,4l1.4,8.8l0.6,4h9.1c0.6-1.4,1.1-2.8,2-4h-7.8l-1.4-8.8
			l-0.6-4L23,19.5l-0.6-4L20.5,3.7h25.4l-2.1,11.8l-0.7,4l-1.3,7.4l-0.7,4l-0.3,1.9c1.4-1.1,2.5-0.8,4.1-1.6l0.2-0.4l0.7-4l1.3-7.4
			l0.7-4l2-11.8l0.7-4H15.9z"/>
		<path fill="#383838" d="M18.4,15.5l0.6,4h28.1l0.7-4H18.4z M18.4,15.5l0.6,4h28.1l0.7-4H18.4z M18.4,15.5l0.6,4h28.1l0.7-4H18.4z
			 M4.2,15.5l0.1,0.4v0l4.2,14.9h48.9l0.1-0.4l4.5-14.9H4.2z M11.5,26.9l-2.1-7.4h47.3l-2.2,7.4H11.5z M18.4,15.5l0.6,4h28.1l0.7-4
			H18.4z M18.4,15.5l0.6,4h28.1l0.7-4H18.4z M22.4,15.5l0.6,4h20.2l0.7-4H22.4z"/>
	</g>
	<path fill="#383838" d="M48.8,30.9c1.5-0.4,3.1-0.6,4.7-0.7c0.2,0,0.5,0,0.7,0c1.1,0,2.3,0.1,3.3,0.3l-0.1,0.4H48.8z"/>
</g>
</svg>
