<?xml version="1.0" encoding="utf-8"?>
<!-- Generator: Adobe Illustrator 18.0.0, SVG Export Plug-In . SVG Version: 6.00 Build 0)  -->
<!DOCTYPE svg PUBLIC "-//W3C//DTD SVG 1.1//EN" "http://www.w3.org/Graphics/SVG/1.1/DTD/svg11.dtd">
<svg version="1.1" id="Layer_1" xmlns="http://www.w3.org/2000/svg" xmlns:xlink="http://www.w3.org/1999/xlink" x="0px" y="0px"
	 viewBox="0 0 72 72" enable-background="new 0 0 72 72" xml:space="preserve">
<g>
	<path fill="#383838" d="M14.4,16.1L14.4,16.1z"/>
	<path fill="#383838" d="M65,72.3c-4.4-0.2-5.9-3.7-5.9-6h4h-2l2,0c0,0.7,0.3,2,2.1,2L65,72.3z"/>
	<path fill="#383838" d="M6.4,72.3l-0.1-4c1.8-0.1,2.1-1.3,2.1-2l4,0C12.3,68.7,10.7,72.2,6.4,72.3z"/>
	<path fill="#383838" d="M7,41.6H3v-35c0-3.3,2.5-6.9,7.3-6.9c4.2,0,6.9,2.6,6.9,6.5h-4c0-2.4-1.5-2.7-2.9-2.7C7.8,3.4,7,5.3,7,6.5
		V41.6z"/>
	<path fill="#383838" d="M20.9,10.2H10.8v-2c0-2.8,2.3-5,5-5s5,2.3,5,5V10.2z"/>
	<rect x="11.8" y="11.6" fill="#383838" width="2" height="30"/>
	<polygon fill="#383838" points="18.6,41.6 16.6,41.6 14.9,11.6 16.9,11.6 	"/>
	<polygon fill="#383838" points="24,41.6 22,41.6 18,11.6 20,11.6 	"/>
	<g>
		<path fill="#383838" d="M62.7,43.1c-0.5-3.7-3.7-6.5-7.5-6.5h-5.6c-3.8,0-7,2.8-7.5,6.5H0c0,0,2,22.4,9.4,22.4h53.9
			c5.7,0,8.5-22.4,8.5-22.4H62.7z M62.8,61.5H9.6c-1.2-0.6-3.7-5.9-5-14.4H42v3c0,0.3,0,0.5,0,0.8h20.7c0-0.3,0-0.5,0-0.8v-3h4.5
			C66.1,53.8,64.2,59.9,62.8,61.5z"/>
		<path fill="#383838" d="M61.3,54.7c-1.4,1.8-3.6,3-6.1,3h-5.6c-2.5,0-4.7-1.2-6-3H61.3z"/>
		<path fill="#383838" d="M62.5,52.3c-0.1,0.3-0.2,0.6-0.4,0.9H42.7c-0.1-0.3-0.3-0.6-0.4-0.9H62.5z"/>
	</g>
</g>
</svg>
