<?xml version="1.0" encoding="utf-8"?>
<!-- Generator: Adobe Illustrator 18.0.0, SVG Export Plug-In . SVG Version: 6.00 Build 0)  -->
<!DOCTYPE svg PUBLIC "-//W3C//DTD SVG 1.1//EN" "http://www.w3.org/Graphics/SVG/1.1/DTD/svg11.dtd">
<svg version="1.1" id="Layer_1" xmlns="http://www.w3.org/2000/svg" xmlns:xlink="http://www.w3.org/1999/xlink" x="0px" y="0px"
	 viewBox="0 0 72 72" enable-background="new 0 0 72 72" xml:space="preserve">
<g>
	<line fill="none" x1="69.1" y1="63" x2="1.8" y2="63"/>
	<path fill="#383838" d="M67.2,70.7H4.1c-2.5,0-4.5-2-4.5-4.5V66c0-2.5,2-4.5,4.5-4.5h63.1c2.5,0,4.5,2,4.5,4.5v0.2
		C71.7,68.7,69.7,70.7,67.2,70.7z"/>
	<path fill="#383838" d="M53.6,17.4H17c-4.4,0-7.7,4.2-6.7,8.6l6.1,27.3c0.7,3.2,3.5,5.5,6.7,5.5h24.4c3.2,0,6-2.3,6.7-5.5l1.7-7.4
		l3.7-16.7l0.7-3.2C61.3,21.6,58.1,17.4,53.6,17.4z M21.4,34.8c-2.1,0-3.7-2.1-3.7-4.7s1.7-4.7,3.7-4.7s3.7,2.1,3.7,4.7
		S23.5,34.8,21.4,34.8z"/>
	<path fill="none" stroke="#383838" stroke-width="6" stroke-miterlimit="10" d="M58.9,28.8c0,0,21.3,11.2-5,17.6"/>
	<path fill="#383838" d="M26.4,15c-3.4-2.7-8-8.4-3.6-12.2L25.7,5c-2.7,2.4,4.4,9.9,4.4,10H26.4z"/>
	<path fill="#383838" d="M34.5,15c-3.4-3.4-8-10.4-3.6-15.2l2.9,2.8c-2.7,3,4.6,12.3,4.6,12.4H34.5z"/>
	<path fill="#383838" d="M42.6,15c-3.4-2.7-8-8.4-3.6-12.2L41.9,5c-2.7,2.4,4.8,9.9,4.9,10H42.6z"/>
</g>
</svg>
