<?xml version="1.0" encoding="utf-8"?>
<!-- Generator: Adobe Illustrator 18.0.0, SVG Export Plug-In . SVG Version: 6.00 Build 0)  -->
<!DOCTYPE svg PUBLIC "-//W3C//DTD SVG 1.1//EN" "http://www.w3.org/Graphics/SVG/1.1/DTD/svg11.dtd">
<svg version="1.1" id="Layer_1" xmlns="http://www.w3.org/2000/svg" xmlns:xlink="http://www.w3.org/1999/xlink" x="0px" y="0px"
	 viewBox="0 0 72 72" enable-background="new 0 0 72 72" xml:space="preserve">
<g>
	<rect x="17.1" y="63.2" fill="#383838" width="51.2" height="8.8"/>
	<path fill="#383838" d="M68.2,47.2H17.1c0-8.2,11.4-14.8,25.6-14.8C56.8,32.4,68.2,39,68.2,47.2z"/>
	<path fill="#383838" d="M67.4,59.3H17.9c-2.4,0-4.4-2-4.4-4.4v0c0-2.4,2-4.4,4.4-4.4h49.6c2.4,0,4.4,2,4.4,4.4v0
		C71.8,57.3,69.8,59.3,67.4,59.3z"/>
	<path fill="#383838" d="M7.5,71.9L0,16.4h34.3l-1.8,11.9c0,0-26.2,1-20.9,43.6H7.5z"/>
	<polygon fill="#383838" points="25.5,12.7 31.6,12.7 37.6,4.8 49.5,3.7 49.5,0 35.8,0.6 	"/>
</g>
</svg>
