<?xml version="1.0" encoding="utf-8"?>
<!-- Generator: Adobe Illustrator 18.0.0, SVG Export Plug-In . SVG Version: 6.00 Build 0)  -->
<!DOCTYPE svg PUBLIC "-//W3C//DTD SVG 1.1//EN" "http://www.w3.org/Graphics/SVG/1.1/DTD/svg11.dtd">
<svg version="1.1" id="Layer_1" xmlns="http://www.w3.org/2000/svg" xmlns:xlink="http://www.w3.org/1999/xlink" x="0px" y="0px"
	 viewBox="0 0 72 72" enable-background="new 0 0 72 72" xml:space="preserve">
<g>
	<path fill="#383838" d="M62.8,23.1H9.2C4.2,26,0.1,30.1,0.1,35v10.5c0,5,4.1,9.1,9.6,8.5h53.7c4.4,0.5,8.5-3.5,8.5-8.5V35
		C71.9,30.1,67.8,26,62.8,23.1z M17.4,37c-0.4,1-1.3,1.9-2.3,2.3c-3.9,1.6-7.6-2.1-6.1-6.1c0.4-1.1,1.3-1.9,2.3-2.3
		C15.3,29.3,19,33,17.4,37z M26.2,46.4h-5v-16h5V46.4z M34.2,46.4h-5v-16h5V46.4z M42.2,46.4h-5v-16h5V46.4z M50.2,46.4h-5v-16h5
		V46.4z M62.3,37.4c-0.4,0.7-1,1.3-1.7,1.7c-4.1,2-8.1-1.8-6.5-5.9c0.4-1.1,1.3-1.9,2.3-2.3C60.5,29.3,64.3,33.3,62.3,37.4z"/>
	<path fill="#383838" d="M8.8,60.9v6.2c0,2.7,2,4.8,4.5,4.8h0c2.5,0,4.5-2.2,4.5-4.8v-6.2c0-2.7-2-4.8-4.5-4.8h0
		C10.8,56.1,8.8,58.2,8.8,60.9z"/>
	<path fill="#383838" d="M58.3,56.1L58.3,56.1c-2.5,0-4.5,2.2-4.5,4.9V67c0,2.7,2,4.9,4.5,4.9h0c2.5,0,4.5-2.2,4.5-4.9v-6.1
		C62.8,58.3,60.8,56.1,58.3,56.1z"/>
</g>
<path fill="none" stroke="#383838" stroke-width="6" stroke-miterlimit="10" d="M11.3,27.8V14.3c0-6.3,3.3-11.5,7.2-11.5h34.6
	c4,0,7.2,5.2,7.2,11.5v13.5"/>
</svg>
