<?xml version="1.0" encoding="utf-8"?>
<!-- Generator: Adobe Illustrator 18.0.0, SVG Export Plug-In . SVG Version: 6.00 Build 0)  -->
<!DOCTYPE svg PUBLIC "-//W3C//DTD SVG 1.1//EN" "http://www.w3.org/Graphics/SVG/1.1/DTD/svg11.dtd">
<svg version="1.1" id="Layer_1" xmlns="http://www.w3.org/2000/svg" xmlns:xlink="http://www.w3.org/1999/xlink" x="0px" y="0px"
	 viewBox="0 0 72 72" enable-background="new 0 0 72 72" xml:space="preserve">
<g>
	<path fill="#383838" d="M14.7,57.9C6.5,57.9-0.2,51.2-0.2,43c0-8.2,6.6-14.8,14.8-14.8c8.2,0,14.8,6.6,14.8,14.8
		C29.5,51.2,22.8,57.9,14.7,57.9z M14.7,32.9C9,32.9,4.5,37.4,4.5,43c0,5.6,4.6,10.2,10.2,10.2c5.6,0,10.2-4.6,10.2-10.2
		C24.8,37.4,20.3,32.9,14.7,32.9z"/>
	<path fill="#383838" d="M57.2,57.9c-8.2,0-14.8-6.6-14.8-14.8c0-8.2,6.6-14.8,14.8-14.8S72,34.9,72,43C72,51.2,65.4,57.9,57.2,57.9
		z M57.2,32.9C51.6,32.9,47,37.4,47,43c0,5.6,4.6,10.2,10.2,10.2S67.4,48.7,67.4,43C67.4,37.4,62.8,32.9,57.2,32.9z"/>
	<path fill="#383838" d="M24.3,21.7L10.6,45.3h26.8l13.7-23.7H24.3z M18.7,40.7l6.8-11.8l6.8,11.8H18.7z M36.2,38.2l-6.9-11.9h13.8
		L36.2,38.2z"/>
	<polyline fill="none" points="36.1,21.7 26.6,21.7 25.5,21.7 24.3,21.7 	"/>
	<polyline fill="none" points="39.8,41.2 38.9,42.9 38.3,43.9 37.4,45.3 	"/>
	<polygon fill="#383838" points="36.2,38.2 22.8,15 18.5,16.8 32,40 	"/>
	<rect x="13.7" y="12.7" fill="#383838" width="14.1" height="4.6"/>
	<path fill="#383838" d="M55,44l-9.4-27.9c-0.2-0.2-1.6-1.4-6.8-1.1l-0.3-4.6c9.3-0.5,11.1,2.9,11.5,4.3l9.4,27.8L55,44z"/>
	<path fill="#383838" d="M6.5,28.5l-1.9-4.2c10.2-4.5,17.8-0.1,18.1,0.1l-2.4,4C20.2,28.3,14.5,25,6.5,28.5z"/>
</g>
</svg>
