<?xml version="1.0" encoding="utf-8"?>
<!-- Generator: Adobe Illustrator 18.0.0, SVG Export Plug-In . SVG Version: 6.00 Build 0)  -->
<!DOCTYPE svg PUBLIC "-//W3C//DTD SVG 1.1//EN" "http://www.w3.org/Graphics/SVG/1.1/DTD/svg11.dtd">
<svg version="1.1" id="Layer_1" xmlns="http://www.w3.org/2000/svg" xmlns:xlink="http://www.w3.org/1999/xlink" x="0px" y="0px"
	 viewBox="0 0 72 72" enable-background="new 0 0 72 72" xml:space="preserve">
<g>
	<path fill="#383838" d="M61.3,0.1C22.4,2.9,2.7,22-0.1,60.8C-0.6,66.6,4.2,71.4,10,71c39-2.8,58.6-21.8,61.5-60.8
		C71.9,4.5,67.1-0.3,61.3,0.1z M54.5,25.6l-2.8-2.8l-4.8,4.8l2.8,2.8l-3.2,3.2l-2.8-2.8l-4.8,4.8l2.8,2.8l-3.2,3.2l-2.8-2.8
		l-4.8,4.8l2.8,2.8l-3.2,3.2l-2.8-2.8l-4.8,4.8l2.8,2.8l-3.2,3.2l-2.8-2.8l-3.1,3.1l-3.2-3.2l3.1-3.1l-2.8-2.8l3.2-3.2l2.8,2.8
		l4.8-4.8l-2.8-2.8l3.2-3.2l2.8,2.8l4.8-4.8l-2.8-2.8l3.2-3.2l2.8,2.8l4.8-4.8l-2.8-2.8l3.2-3.2l2.8,2.8l4.8-4.8l-2.8-2.8l3.2-3.2
		l2.8,2.8l2.7-2.7l3.2,3.2l-2.7,2.7l2.8,2.8L54.5,25.6z"/>
	<polygon fill="#383838" points="36,71.9 71.9,71.9 70.9,38.1 68.5,39.5 66.3,68.7 63.1,44.3 61.8,48.7 61.3,64.1 58.5,52.8 
		56.8,56.4 56.6,69.3 53.8,61.4 51.6,58.6 49.9,67.8 47.7,62.6 45.7,65.4 45.4,70.4 43.5,66.6 41.7,64.8 40.4,69.7 38.4,67.1 
		36.9,68.2 	"/>
</g>
</svg>
