<?xml version="1.0" encoding="utf-8"?>
<!-- Generator: Adobe Illustrator 18.0.0, SVG Export Plug-In . SVG Version: 6.00 Build 0)  -->
<!DOCTYPE svg PUBLIC "-//W3C//DTD SVG 1.1//EN" "http://www.w3.org/Graphics/SVG/1.1/DTD/svg11.dtd">
<svg version="1.1" id="Layer_1" xmlns="http://www.w3.org/2000/svg" xmlns:xlink="http://www.w3.org/1999/xlink" x="0px" y="0px"
	 viewBox="0 0 72 72" enable-background="new 0 0 72 72" xml:space="preserve">
<g>
	<polygon fill="#383838" points="72,45.1 72,72.1 63,72.1 63,54.1 9.2,54.1 9.2,72.1 0.2,72.1 0.2,9.1 9.2,9.1 9.2,45.1 	"/>
	<circle fill="#383838" cx="18.7" cy="36.3" r="6.2"/>
	<path fill="#383838" d="M72,36.3v6.2H27v-6.2c0-3.4,2.8-6.3,6.2-6.3h32.5C69.2,30.1,72,32.9,72,36.3z"/>
	<line fill="none" x1="70.9" y1="29.3" x2="25.9" y2="29.3"/>
	<path fill="#383838" d="M72,12.2c0,6.7-5.4,12.1-12.1,12.1c-2.1,0-4.1-0.5-5.8-1.5c19.4-8.3,5.5-22.2,5-22.7c0.3,0,0.6,0,0.8,0
		C66.5,0.1,72,5.5,72,12.2z"/>
	<circle fill="#383838" cx="39.2" cy="17.2" r="2.2"/>
	<circle fill="#383838" cx="29.9" cy="8.3" r="2.2"/>
	<circle fill="#383838" cx="49.5" cy="10.6" r="2.2"/>
</g>
</svg>
