<?xml version="1.0" encoding="utf-8"?>
<!-- Generator: Adobe Illustrator 18.0.0, SVG Export Plug-In . SVG Version: 6.00 Build 0)  -->
<!DOCTYPE svg PUBLIC "-//W3C//DTD SVG 1.1//EN" "http://www.w3.org/Graphics/SVG/1.1/DTD/svg11.dtd">
<svg version="1.1" id="Layer_1" xmlns="http://www.w3.org/2000/svg" xmlns:xlink="http://www.w3.org/1999/xlink" x="0px" y="0px"
	 viewBox="0 0 72 72" enable-background="new 0 0 72 72" xml:space="preserve">
<g>
	<g>
		<path fill="#383838" d="M24.1,71.7L0.1,69.2c0.3-2.4,5.9-3.7,12.5-3C19.2,66.9,24.3,69.3,24.1,71.7z"/>
		<polygon fill="#383838" points="14.9,67.3 10.3,66.8 13,44.7 17.6,45.2 		"/>
		<path fill="#383838" d="M5.3,12.8C3,31.2,7.4,46.8,15,47.6S30.5,34,32.8,15.6L5.3,12.8z M15.8,42.7c-5.1-0.5-7.8-12-6.1-25.6
			L28,19C26.3,32.6,20.9,43.3,15.8,42.7z"/>
	</g>
	<g>
		<path fill="#383838" d="M71.6,61.1l-23.4,5.2c-0.6-2.3,4.1-5.3,10.6-6.8C65.2,58.1,71,58.8,71.6,61.1z"/>
		<polygon fill="#383838" points="61.3,59.8 56.8,60.8 51.1,39.2 55.7,38.2 		"/>
		<path fill="#383838" d="M32.1,11.6c4.7,18,14.6,31.3,22,29.6S63.7,23.7,59,5.6L32.1,11.6z M53.1,36.4c-4.9,1.1-11.8-8.8-15.3-22.2
			l17.9-3.9C59.2,23.7,58,35.3,53.1,36.4z"/>
	</g>
	<path fill="#383838" d="M28.3,27.8H7.4c0,0,1.9,13.2,7.8,16.3S28.3,27.8,28.3,27.8z"/>
	<path fill="#383838" d="M59.8,22.4H39c0,0,5.6,15,13.6,16.1C60.6,39.6,59.8,22.4,59.8,22.4z"/>
	<polygon fill="#383838" points="28.2,9.4 37.1,7.7 40.8,0.3 33.9,3.4 29.1,0 26.6,6.2 17.9,5.6 22.2,11.9 29.1,12.5 	"/>
	<polygon fill="#383838" points="30.8,40.2 33.6,35.6 39,38.5 33.9,25.2 	"/>
</g>
</svg>
