<?xml version="1.0" encoding="utf-8"?>
<!-- Generator: Adobe Illustrator 18.0.0, SVG Export Plug-In . SVG Version: 6.00 Build 0)  -->
<!DOCTYPE svg PUBLIC "-//W3C//DTD SVG 1.1//EN" "http://www.w3.org/Graphics/SVG/1.1/DTD/svg11.dtd">
<svg version="1.1" id="Layer_1" xmlns="http://www.w3.org/2000/svg" xmlns:xlink="http://www.w3.org/1999/xlink" x="0px" y="0px"
	 viewBox="0 0 72 72" enable-background="new 0 0 72 72" xml:space="preserve">
<g>
	<ellipse fill="#383838" cx="9.2" cy="58.9" rx="9.2" ry="5.5"/>
	<rect x="13" y="9.2" fill="#383838" width="5.4" height="49.6"/>
	<g>
		<ellipse fill="#383838" cx="34.4" cy="51.3" rx="9.2" ry="5.5"/>
		<rect x="38.2" y="1.6" fill="#383838" width="5.4" height="49.6"/>
	</g>
	<g>
		<ellipse fill="#383838" cx="53.9" cy="66.4" rx="9.2" ry="5.5"/>
		<polygon fill="#383838" points="63.1,23.4 63.1,66.4 57.7,66.4 57.7,16.8 57.8,16.8 		"/>
	</g>
	<polygon fill="#383838" points="14.5,15 13,9.3 43.6,-0.1 43.6,6.1 	"/>
	<polygon fill="#383838" points="43.6,9.7 43.6,14.5 38.2,16.2 18.4,22.3 14.5,23.5 13,17.7 18.4,16 38.2,10 43.3,8.4 	"/>
	<polygon fill="#383838" points="72,34.4 68,38.3 63.1,32.3 57.7,25.5 57.7,16.9 57.8,16.8 63.1,23.4 	"/>
</g>
</svg>
