<?xml version="1.0" encoding="utf-8"?>
<!-- Generator: Adobe Illustrator 18.0.0, SVG Export Plug-In . SVG Version: 6.00 Build 0)  -->
<!DOCTYPE svg PUBLIC "-//W3C//DTD SVG 1.1//EN" "http://www.w3.org/Graphics/SVG/1.1/DTD/svg11.dtd">
<svg version="1.1" id="Layer_1" xmlns="http://www.w3.org/2000/svg" xmlns:xlink="http://www.w3.org/1999/xlink" x="0px" y="0px"
	 viewBox="0 0 72 72" enable-background="new 0 0 72 72" xml:space="preserve">
<g>
	<path fill="#383838" d="M38.6,9.3l-9,26.9V72h18V36.2L38.6,9.3z M31.8,36.2l4.6-13.5l4.9,1.4l3.8,12.1H31.8z"/>
	<path fill="#383838" d="M62.8,9.3l-9,26.9V72h18V36.2L62.8,9.3z M56,36.2l4.6-13.5l5,1.4l3.8,12.1H56z"/>
	<g>
		<polygon fill="#383838" points="4.7,4.5 4.7,67.5 22.7,67.5 22.7,72 0.2,72 0.2,0 22.7,0 22.7,4.5 		"/>
		<rect x="13.7" y="13.6" fill="#383838" width="9" height="4.5"/>
		<rect x="13.7" y="40.8" fill="#383838" width="9" height="4.5"/>
		<rect x="17.6" y="27.3" fill="#383838" width="5.1" height="4.5"/>
		<rect x="17.6" y="54.1" fill="#383838" width="5.1" height="4.5"/>
	</g>
</g>
</svg>
