<?xml version="1.0" encoding="utf-8"?>
<!-- Generator: Adobe Illustrator 18.0.0, SVG Export Plug-In . SVG Version: 6.00 Build 0)  -->
<!DOCTYPE svg PUBLIC "-//W3C//DTD SVG 1.1//EN" "http://www.w3.org/Graphics/SVG/1.1/DTD/svg11.dtd">
<svg version="1.1" id="Layer_1" xmlns="http://www.w3.org/2000/svg" xmlns:xlink="http://www.w3.org/1999/xlink" x="0px" y="0px"
	 viewBox="0 0 72 72" enable-background="new 0 0 72 72" xml:space="preserve">
<g>
	<g>
		<path fill="#383838" d="M37.6,58.8h-1.1l-0.5-0.2c-5.1-2.5-10-6.3-14.1-11c-4.6-5.3-7.5-11.3-8.4-17.3c-0.5-3-0.8-6.9,0.9-10.6
			c1.3-2.8,3.5-5.3,6.2-6.8c2.1-1.2,4.5-1.8,6.9-1.8c3.6,0,7,1.3,9.7,3.6c2.6-2.3,6.1-3.6,9.7-3.6c2.4,0,4.8,0.6,6.9,1.8
			c2.7,1.5,4.9,3.9,6.2,6.8c1.6,3.7,1.3,7.6,0.9,10.6c-0.9,6-3.9,12-8.4,17.3c-4.2,4.8-9,8.6-14.2,11L37.6,58.8z M27.4,15.8
			c-1.6,0-3.2,0.4-4.6,1.2c-1.8,1-3.3,2.6-4.1,4.5c-0.9,2-1.1,4.5-0.5,7.9c0.8,5.2,3.3,10.3,7.3,14.9c3.4,3.9,7.5,7.2,11.6,9.4
			c4.1-2.2,8.2-5.5,11.6-9.4c4-4.6,6.5-9.8,7.3-14.9c0.5-3.5,0.4-5.9-0.5-7.9c-0.8-1.9-2.3-3.5-4.1-4.5c-1.4-0.8-3-1.2-4.6-1.2
			c-3.1,0-6,1.4-7.8,3.8l-1.9,2.5l-1.9-2.5C33.4,17.2,30.5,15.8,27.4,15.8z"/>
		<g>
			<polygon fill="#383838" points="33.1,42.3 23.2,52.1 20.8,54.4 20.8,65.4 16.1,65.4 16.1,55.8 6.5,55.8 6.5,51.1 17.4,51.1 
				19.8,48.7 29.7,38.9 			"/>
			<polygon fill="#383838" points="72,0 68.3,13.8 64.9,10.4 57,18.4 53.6,15 61.5,7.1 58.2,3.7 			"/>
			<g>
				<polygon fill="#383838" points="-0.1,57.6 14.2,57.6 14.2,72 9.5,72 9.5,62.4 -0.1,62.4 				"/>
				<path fill="#383838" stroke="#383838" stroke-width="8" stroke-miterlimit="10" d="M11.9,60"/>
			</g>
		</g>
	</g>
</g>
</svg>
