<?xml version="1.0" encoding="utf-8"?>
<!-- Generator: Adobe Illustrator 18.0.0, SVG Export Plug-In . SVG Version: 6.00 Build 0)  -->
<!DOCTYPE svg PUBLIC "-//W3C//DTD SVG 1.1//EN" "http://www.w3.org/Graphics/SVG/1.1/DTD/svg11.dtd">
<svg version="1.1" id="Layer_1" xmlns="http://www.w3.org/2000/svg" xmlns:xlink="http://www.w3.org/1999/xlink" x="0px" y="0px"
	 viewBox="0 0 72 72" enable-background="new 0 0 72 72" xml:space="preserve">
<g>
</g>
<path fill="#383838" d="M67,21.9c-0.2,0.2-0.4,0.3-0.7,0.4L57.7,24c-0.8,0.2-1.7-0.2-1.8-0.9l-0.5-2c-0.2-0.6,0.4-1.3,1.2-1.4
	l3.8-0.6c-3.1-1.1-5.6-1.9-5.6-1.9l-35.5,6.8L6.8,17.9l-6.6,1.3l9.6,20.4c0,0,9.4-1.2,20.9-2.9c4.3-0.6,8.8-1.3,13.2-2.1h0
	c13.2-2.2,25.6-4.8,27.5-6.7C73.3,25.9,70.7,23.7,67,21.9z M27.6,29.8l-2,0.4c-0.5,0.1-1-0.3-1.1-0.8l-0.4-2.5
	c-0.1-0.5,0.3-1,0.8-1.1l2-0.4c0.5-0.1,1,0.3,1.1,0.8l0.4,2.5C28.5,29.2,28.2,29.7,27.6,29.8z M40.8,22.9l2-0.3
	c0.5-0.1,1,0.3,1.1,0.8l0.4,2.5c0.1,0.5-0.3,1-0.8,1.1l-2,0.3c-0.5,0.1-1-0.3-1.1-0.8L40,24C39.9,23.5,40.3,23,40.8,22.9z
	 M32.9,24.3l2-0.4c0.5-0.1,1,0.3,1.1,0.8l0.4,2.5c0.1,0.5-0.3,1-0.8,1.1l-2,0.4c-0.5,0.1-1-0.3-1.1-0.8l-0.4-2.5
	C32,24.9,32.4,24.4,32.9,24.3z M51.2,25.5l-2,0.4c-0.5,0.1-1-0.3-1.1-0.8l-0.4-2.5c-0.1-0.5,0.3-1,0.8-1.1l2-0.4
	c0.5-0.1,1,0.3,1.1,0.8l0.4,2.5C52,25,51.7,25.5,51.2,25.5z"/>
<polygon fill="#383838" points="33.7,32 21.7,50.4 32.2,48.8 48.1,29.4 "/>
<polygon fill="#383838" points="24.3,20.5 17.7,14.6 26.6,13.5 34.9,18.8 "/>
<ellipse fill="#383838" cx="50.5" cy="48.1" rx="5.6" ry="6"/>
<ellipse fill="#383838" cx="59.9" cy="50" rx="9.2" ry="5.4"/>
<ellipse fill="#383838" cx="56.1" cy="43.8" rx="4" ry="4.3"/>
<circle fill="#383838" cx="62.8" cy="46.8" r="4.1"/>
<ellipse fill="#383838" cx="50.7" cy="52.4" rx="9" ry="4.8"/>
<ellipse fill="#383838" cx="51.7" cy="4.9" rx="3.3" ry="3.6"/>
<ellipse fill="#383838" cx="57.9" cy="5.4" rx="6.9" ry="4"/>
<ellipse fill="#383838" cx="55.1" cy="2.9" rx="3" ry="3.2"/>
<ellipse fill="#383838" cx="51" cy="7.2" rx="6.7" ry="3.6"/>
<ellipse fill="#383838" cx="9" cy="62.9" rx="5.6" ry="6"/>
<ellipse fill="#383838" cx="18.4" cy="64.7" rx="9.2" ry="5.4"/>
<ellipse fill="#383838" cx="17.1" cy="58.6" rx="6.4" ry="4.3"/>
<ellipse fill="#383838" cx="9.2" cy="67.2" rx="9" ry="4.8"/>
</svg>
