<?xml version="1.0" encoding="utf-8"?>
<!-- Generator: Adobe Illustrator 18.0.0, SVG Export Plug-In . SVG Version: 6.00 Build 0)  -->
<!DOCTYPE svg PUBLIC "-//W3C//DTD SVG 1.1//EN" "http://www.w3.org/Graphics/SVG/1.1/DTD/svg11.dtd">
<svg version="1.1" id="Layer_1" xmlns="http://www.w3.org/2000/svg" xmlns:xlink="http://www.w3.org/1999/xlink" x="0px" y="0px"
	 viewBox="0 0 72 72" enable-background="new 0 0 72 72" xml:space="preserve">
<g>
	<path fill="#383838" d="M3.1,52.1l0-0.1c0.1-2,1.5-3.6,3.2-3.7l13.8-0.6c1.8-0.1,3.2,1.6,3.1,3.8l0,0.1c-0.1,2-1.5,3.6-3.2,3.7
		L6.2,55.9C4.4,56,3,54.2,3.1,52.1z"/>
	<g>
		<path fill="#383838" d="M17.2,53.5L17.2,53.5c-1.2-1.6-1.1-3.8,0.2-4.9l10.4-8.7c1.4-1.2,3.5-0.7,4.8,1l0,0
			c1.2,1.6,1.1,3.8-0.2,4.9l-10.4,8.7C20.6,55.7,18.4,55.2,17.2,53.5z"/>
		<path fill="#383838" d="M45.8,57.1L45.8,57.1c-1.5,1.6-3.3,2.2-4,1.4L30.6,46.3c-0.7-0.8-0.2-2.5,1.1-4l0-0.1
			c1.4-1.6,3.2-2.2,4-1.4L46.9,53C47.7,53.8,47.2,55.6,45.8,57.1z"/>
		<path fill="#383838" d="M56.3,35.3L56.3,35.3c-1.4,1.2-3.4,0.9-4.4-0.6l-9-12.8c-1-1.4-0.7-3.3,0.5-4.4l0,0
			c1.3-1.1,3.3-0.8,4.4,0.7l9,12.8C57.9,32.3,57.6,34.2,56.3,35.3z"/>
		<path fill="#383838" d="M68.7,26.2l0.1,0.3c0.7,1.6-0.3,3.6-2.2,4.5l-9.7,4.6c-2,0.9-4.2,0.4-4.9-1.3L51.9,34
			c-0.7-1.6,0.3-3.6,2.2-4.5l9.7-4.6C65.8,23.9,68,24.5,68.7,26.2z"/>
		<path fill="#383838" d="M25.2,18.2L25.2,18.2c0-1.8,1.5-3.2,3.3-3l15.7,1.1c1.7,0.1,3.1,1.5,3.1,3.2l0,0.1c0,1.7-1.5,3.1-3.3,3
			l-15.7-1.1C26.6,21.3,25.3,19.9,25.2,18.2z"/>
		<path fill="#383838" d="M24.6,33.6l-0.3-0.1c-1.7-0.5-2.6-2.5-2.1-4.6l2.5-10.5c0.5-2.1,2.3-3.5,4.1-3l0.3,0.1
			c1.7,0.5,2.6,2.5,2.1,4.6l-2.5,10.5C28.2,32.7,26.3,34,24.6,33.6z"/>
		<path fill="#383838" d="M29.6,46.5L29.6,46.5c-2.2-1.3-2.9-4.2-1.6-6.6l12-21.1c1.3-2.4,4.2-3.2,6.5-1.9l0,0
			c2.2,1.3,2.9,4.2,1.6,6.6l-12,21.1C34.8,46.9,31.9,47.8,29.6,46.5z"/>
		<path fill="#383838" d="M47.6,71.4l-0.1,0c-2,0.3-3.9-0.8-4.3-2.4L40,55.6c-0.4-1.8,1-3.5,3.2-3.8l0.1,0c2-0.3,3.9,0.8,4.3,2.4
			l3.2,13.4C51.2,69.4,49.7,71.1,47.6,71.4z"/>
		<circle fill="#383838" cx="50.5" cy="7.4" r="7.5"/>
	</g>
</g>
</svg>
