<?xml version="1.0" encoding="utf-8"?>
<!-- Generator: Adobe Illustrator 18.0.0, SVG Export Plug-In . SVG Version: 6.00 Build 0)  -->
<!DOCTYPE svg PUBLIC "-//W3C//DTD SVG 1.1//EN" "http://www.w3.org/Graphics/SVG/1.1/DTD/svg11.dtd">
<svg version="1.1" id="Layer_1" xmlns="http://www.w3.org/2000/svg" xmlns:xlink="http://www.w3.org/1999/xlink" x="0px" y="0px"
	 viewBox="0 0 72 72" enable-background="new 0 0 72 72" xml:space="preserve">
<path fill="#383838" d="M62.1,61.3c-6.6,6.7-15.7,10.8-25.7,10.8c-19.9,0-36-16.1-36-36.1c0-6.5,1.7-12.7,4.8-18
	C5,18.7,5,19.4,5,20.2c0,5.3,3.3,9.8,7.9,11.2c0.1,0.3,0.2,0.6,0.4,0.9c0.4,0.9,0.9,1.7,1.3,2.4C10.7,36,8,39.7,8,44
	c0,2.7,1.1,5.1,2.8,6.9c0,0.4-0.1,0.9-0.1,1.4c0,5.4,2.2,9.8,4.9,9.8c2.5,0,4.6-3.8,4.9-8.7c4.1-1.2,7.1-5,7.1-9.4
	c0-4.1-2.5-7.6-6-9c-0.2-1.2-0.6-2.6-1.2-4.1c1.5-0.7,2.8-1.8,3.9-3.1c0,0.2,0,0.4,0,0.6c0,1.3,0.5,2.4,1.1,2.4c0.6,0,1-1.1,1-2.4
	c0-1.2-0.4-2.2-0.9-2.4c0.9-1.7,1.5-3.7,1.5-5.9c0-0.6,0-1.3-0.1-1.9c0.6,0.1,1.2,0.2,1.9,0.2c4.5,0,8.1-3.2,8.1-7.1
	c0-3.9-3.6-7.1-8.1-7.1c-3.8,0-7,2.3-7.9,5.4c-1.5-0.8-3.1-1.2-4.8-1.2c-1.2,0-2.5,0.2-3.6,0.6C18.8,3.4,27.2,0,36.4,0
	c8,0,15.4,2.6,21.4,7.1c-0.3,0-0.6,0-1,0C48.1,7,41,9.9,41,13.5c0,0.8,0.4,1.6,1.1,2.3c-0.5,0.8-0.8,1.6-0.8,2.6
	c0,2.7,2.4,4.9,5.3,4.9c2.5,0,4.5-1.6,5.1-3.7c1.6,0.2,3.3,0.3,5.1,0.3c4.2,0,8.1-0.7,10.9-1.8c1.8,3.2,3.2,6.7,3.9,10.4
	c-2.9-1.1-6.4-1.7-10.1-1.7c-10.1,0-18.3,4.7-18.3,10.5c0,4.1,4,7.6,9.9,9.3c0,0.4,0,0.8,0,1.2C53.1,55,57.1,60.8,62.1,61.3z"/>
</svg>
