<?xml version="1.0" encoding="utf-8"?>
<!-- Generator: Adobe Illustrator 18.0.0, SVG Export Plug-In . SVG Version: 6.00 Build 0)  -->
<!DOCTYPE svg PUBLIC "-//W3C//DTD SVG 1.1//EN" "http://www.w3.org/Graphics/SVG/1.1/DTD/svg11.dtd">
<svg version="1.1" id="Layer_1" xmlns="http://www.w3.org/2000/svg" xmlns:xlink="http://www.w3.org/1999/xlink" x="0px" y="0px"
	 viewBox="0 0 72 72" enable-background="new 0 0 72 72" xml:space="preserve">
<g>
	<g>
		<path fill="#383838" d="M5.2,71.3c-0.9,0.5-2.8-1-4.1-3.4s-1.6-4.7-0.7-5.3s2.8,1,4.1,3.4S6.1,70.8,5.2,71.3z"/>
		<path fill="#383838" d="M9,61.6C6.7,63,5,63.9,4.5,64.1c0,0-0.1,0-0.1,0.1L9,61.6z"/>
		<path fill="#383838" d="M10.7,64.6L6,67.2C6.3,67,8.1,65.9,10.7,64.6z"/>
		<path fill="#383838" d="M16.2,56.8c-2.5,1.9-5,3.5-7.1,4.7c0,0-0.1,0.1-0.1,0.1c-2.4,1.4-4.1,2.3-4.6,2.5c0,0-0.1,0-0.1,0.1l0,0
			l-0.8,0.4l-1.6,0.9l1.7,3l1.7-0.9l1.7-1c0.5-0.3,1.2-0.7,2-1.1l2.3-1.3c0,0,0.1,0,0.1-0.1c2-1,4.5-2.2,7.1-3.2L16.2,56.8z M6.2,67
			c0.6-0.4,2.2-1.3,4.4-2.4L6.2,67z M65.5,25.8c-2.5-0.4-35.2,17.4-42.4,25c-1.4,1.5-3,2.9-4.6,4.3l2.6,5c2.1-0.7,4.2-1.3,6.3-1.7
			C37.5,56.3,70,38,71,35.7C72,33.4,67.9,26.1,65.5,25.8z"/>
		<path fill="#383838" d="M9,61.6C6.7,63,5,63.9,4.5,64.1L9,61.6z"/>
		<path fill="#383838" d="M10.7,64.6L6,67.2C6.3,67,8.1,65.9,10.7,64.6z"/>
	</g>
	<path fill="#383838" d="M32.4,16.9L32.4,16.9z"/>
	<path fill="#383838" d="M41.1,18.4c0.4-1.4,0.7-2.8,0.7-4.3C41.8,6.3,35.4,0,27.7,0c-0.3,0-0.6,0-1,0c0.2,0.7,0.5,1.5,0.9,2.3
		l-2.2,0.4c-0.3-0.8-0.6-1.6-0.8-2.4h0c-4.3,1-7.9,4-9.7,7.9c0.3,0.2,0.5,0.4,0.8,0.7l-1,2c-0.2-0.2-0.4-0.3-0.5-0.5
		c-0.3,1.2-0.5,2.4-0.5,3.7c0,7,5.1,12.8,11.7,13.9c-0.1-0.3-0.2-0.6-0.3-0.9h2.3c0.1,0.4,0.2,0.7,0.4,1.1h0.1
		c5.5,0,10.3-3.2,12.6-7.8c-0.5-0.3-0.9-0.7-1.4-1l0.7-2.1C40.1,17.7,40.6,18,41.1,18.4z M15.7,11.9c-0.1-0.1-0.2-0.2-0.3-0.3l1-2
		c0.6,0.5,1.2,1.1,1.8,1.7l-1.4,1.7C16.4,12.7,16,12.3,15.7,11.9z M17.5,13.9l1.4-1.7c0.4,0.5,0.9,1,1.3,1.6l-1.6,1.4
		C18.2,14.7,17.9,14.3,17.5,13.9z M19.2,16l1.6-1.4c0.4,0.6,0.8,1.2,1.2,1.8l-1.8,1.1C19.9,17,19.6,16.5,19.2,16z M20.8,18.4
		l1.8-1.2c0.4,0.7,0.9,1.5,1.3,2.2l-2,0.8C21.6,19.6,21.2,19,20.8,18.4z M22.5,21.2l2-0.8c0.4,0.8,0.8,1.6,1.2,2.5l-2.2,0.4
		C23.1,22.6,22.8,21.9,22.5,21.2z M24.6,26c-0.2-0.6-0.5-1.2-0.7-1.7l2.2-0.4c0.3,0.7,0.5,1.4,0.8,2.1H24.6z M26.9,5.9
		c-0.4-0.8-0.8-1.5-1.1-2.2L28,3.3c0.1,0.1,0.1,0.3,0.2,0.4c0.2,0.5,0.5,0.9,0.7,1.4L26.9,5.9z M27.4,6.8l2-0.8
		C29.7,6.5,30,7,30.3,7.5l-1.8,1.1C28.1,8,27.7,7.4,27.4,6.8z M29.1,9.5l1.9-1.1c0.3,0.5,0.7,1,1.1,1.5l-1.7,1.4
		C29.9,10.6,29.5,10.1,29.1,9.5z M31,12l1.7-1.4c0.4,0.5,0.9,1.1,1.4,1.7L32.7,14C32.1,13.3,31.5,12.7,31,12z M33.5,14.8l1.4-1.7
		c0.5,0.5,1,1.1,1.6,1.6l-1,1.9C34.7,16,34.1,15.4,33.5,14.8z M38,18.8c-0.6-0.5-1.2-0.9-1.7-1.4l1-1.9c0.5,0.4,0.9,0.8,1.4,1.2
		L38,18.8z"/>
	<line fill="#383838" x1="18.4" y1="61" x2="16.2" y2="56.8"/>
	<line fill="#383838" x1="21" y1="60" x2="18.5" y2="55"/>
</g>
</svg>
