<?xml version="1.0" encoding="utf-8"?>
<!-- Generator: Adobe Illustrator 18.0.0, SVG Export Plug-In . SVG Version: 6.00 Build 0)  -->
<!DOCTYPE svg PUBLIC "-//W3C//DTD SVG 1.1//EN" "http://www.w3.org/Graphics/SVG/1.1/DTD/svg11.dtd">
<svg version="1.1" id="Layer_1" xmlns="http://www.w3.org/2000/svg" xmlns:xlink="http://www.w3.org/1999/xlink" x="0px" y="0px"
	 viewBox="0 0 72 72" enable-background="new 0 0 72 72" xml:space="preserve">
<g>
	<path fill="#383838" d="M60.2,52.5H22.6c-1.1,0-2.1-0.7-2.4-1.8l-10-34.1c-0.5-1.6,0.7-3.3,2.4-3.3h56.8c1.7,0,2.9,1.6,2.5,3.2
		l-9.3,34.1C62.4,51.7,61.4,52.5,60.2,52.5z M27.2,46.3h28.3c1.2,0,2.2-0.8,2.5-1.9l5.9-21.9c0.4-1.6-0.8-3.2-2.5-3.2H20.8
		c-1.7,0-2.9,1.6-2.4,3.3l6.4,21.9C25.1,45.6,26.1,46.3,27.2,46.3z"/>
	<path fill="#383838" d="M60.4,62.8H16.5c-1.9,0-3.1-2-2.3-3.7l4.6-8.9c0.6-1.2,2.2-1.7,3.4-1.1l0.9,0.5c1.3,0.6,1.7,2.2,1.1,3.4
		l0,0c-0.9,1.7,0.4,3.7,2.3,3.7h33.8c1.4,0,2.6,1.1,2.6,2.5v1C63,61.6,61.8,62.8,60.4,62.8z"/>
	<path fill="#383838" d="M13,26L8.1,9.3C7.8,8.5,7.2,7.8,6.5,7.6L1.6,5.9C0.3,5.4-0.4,3.9,0,2.6l0.3-1c0.5-1.3,1.9-2,3.3-1.6
		l7.8,2.8c0.8,0.3,1.4,0.9,1.6,1.7l5.8,19.7c0.4,1.4-0.4,2.8-1.7,3.2l-1,0.3C14.8,28.1,13.3,27.3,13,26z"/>
	<path fill="#383838" d="M52.6,71.9c-4.2,0-7.6-3.4-7.6-7.6c0-4.2,3.4-7.6,7.6-7.6s7.6,3.4,7.6,7.6C60.1,68.5,56.8,71.9,52.6,71.9z
		 M52.6,62.8c-0.8,0-1.4,0.7-1.4,1.5c0,0.8,0.6,1.5,1.4,1.5s1.4-0.7,1.4-1.5C54,63.5,53.4,62.8,52.6,62.8z"/>
	<path fill="#383838" d="M21.8,71.9c-4.2,0-7.6-3.4-7.6-7.6c0-4.2,3.4-7.6,7.6-7.6s7.6,3.4,7.6,7.6C29.4,68.5,26,71.9,21.8,71.9z
		 M21.8,62.8c-0.8,0-1.4,0.7-1.4,1.5c0,0.8,0.6,1.5,1.4,1.5s1.4-0.7,1.4-1.5C23.3,63.5,22.6,62.8,21.8,62.8z"/>
	<path fill="#383838" d="M33.7,48.4l-6.2-28.6c-0.3-1.4,0.6-2.7,2-3l1-0.2c1.4-0.3,2.7,0.6,3,2l6.2,28.6c0.3,1.4-0.6,2.7-2,3l-1,0.2
		C35.4,50.7,34,49.8,33.7,48.4z"/>
	<path fill="#383838" d="M48.6,49.4l-1-0.1c-1.4-0.1-2.4-1.3-2.3-2.7l2.3-28c0.1-1.4,1.3-2.4,2.8-2.3l1,0.1c1.4,0.1,2.4,1.3,2.3,2.7
		l-2.3,28C51.2,48.5,50,49.6,48.6,49.4z"/>
	<path fill="#383838" d="M19.3,37.2l0-1c0-1.4,1.1-2.6,2.5-2.6l37.6-0.1c1.4,0,2.6,1.1,2.6,2.5l0,1c0,1.4-1.1,2.6-2.5,2.6l-37.6,0.1
		C20.4,39.7,19.3,38.6,19.3,37.2z"/>
	<path fill="#383838" d="M63.5,29.4l-43.6,0c-1.4,0-2.5-1.1-2.5-2.5l0-1c0-1.4,1.1-2.5,2.6-2.5l43.6,0c1.4,0,2.5,1.1,2.5,2.5l0,1
		C66.1,28.3,64.9,29.4,63.5,29.4z"/>
</g>
</svg>
