<?xml version="1.0" encoding="utf-8"?>
<!-- Generator: Adobe Illustrator 18.0.0, SVG Export Plug-In . SVG Version: 6.00 Build 0)  -->
<!DOCTYPE svg PUBLIC "-//W3C//DTD SVG 1.1//EN" "http://www.w3.org/Graphics/SVG/1.1/DTD/svg11.dtd">
<svg version="1.1" id="Layer_1" xmlns="http://www.w3.org/2000/svg" xmlns:xlink="http://www.w3.org/1999/xlink" x="0px" y="0px"
	 viewBox="0 0 72 72" enable-background="new 0 0 72 72" xml:space="preserve">
<path fill="#383838" d="M23.7,32.4c0,0.2,0,0.3,0,0.5C23.6,32.6,23.6,32.5,23.7,32.4L23.7,32.4z"/>
<g>
	<g>
		<path fill="#383838" d="M11,2.5c1.5-1.3,3.5-2.2,5.6-2.5c0.7,3.4,2.1,7.5,4.8,9.2c2.1,1.3,2.3,2.1,2.3,2.2c0,0.4-0.5,0.9-1.6,1.6
			c-0.2,0.2-0.5,0.3-0.7,0.5c-1,0.7-2.3,1.6-3.1,1.3c-0.3-0.1-1.2-0.7-1.8-3.5C15.5,7,13.1,4.2,11,2.5z"/>
		<path fill="#383838" d="M28.5,10.4c0,5.8-4.7,10.4-10.6,10.4c-5.8,0-10.6-4.7-10.6-10.4c0-2.3,0.8-4.4,2-6.2
			c1.7,1.4,3.9,3.8,4.7,7.6c0.7,2.9,1.7,4.6,3.3,5.2c0.4,0.2,0.8,0.2,1.2,0.2c1.6,0,3-1,4.1-1.8c0.2-0.2,0.5-0.3,0.7-0.4
			c1.4-0.9,2.7-2,2.7-3.6c0-1.4-1.1-2.7-3.4-4.2c-1.8-1.2-3-4.3-3.6-7.3C24.4,0.6,28.5,5,28.5,10.4z"/>
	</g>
	<g>
		<g>
			<g>
				<path fill="#383838" d="M69.4,19.1C67.3,16.3,64,14.6,60,14c-6.2-0.8-13.6,1.4-19.8,6C34,24.7,30,31.1,29.1,36.9
					c0,0.1-0.1,0.3-0.1,0.4l0,0c0,0.4,0,1.2-0.1,2.1c-0.4,3.3-1.6,8.9-5.6,11.9l-6.3,4.7c0,0,0,0,0,0L2.6,66.8l2.1,2.8L19,58.9
					l6.4-4.8c3.8-2.8,9.1-2.7,12.4-2.2c1,0.3,2,0.6,3.1,0.7c6.2,0.8,13.6-1.4,19.8-6C71.1,38.8,75.1,26.5,69.4,19.1z M29.9,48.6
					c0-0.1,0.1-0.1,0.1-0.1c0.3-0.6,0.6-1.2,0.8-1.8c0.2,0.3,0.4,0.6,0.6,0.8c0,0,0.1,0.1,0.1,0.1c0.2,0.3,0.4,0.5,0.6,0.7
					C31.4,48.3,30.7,48.4,29.9,48.6z M68.2,29.9c-1,4.8-4.4,10-9.7,14c-5.2,3.9-11.3,5.9-16.4,5.4c0,0-0.1,0-0.1,0
					c-0.2,0-0.4,0-0.7-0.1c-1-0.1-1.9-0.4-2.7-0.7c-1.8-0.6-3.3-1.7-4.3-3.1c0,0,0,0,0,0c-1.2-1.5-1.8-3.4-1.9-5.4
					c0-0.9,0-1.9,0.2-2.8c0.8-4.9,4.3-10.3,9.8-14.4c5.4-4.1,11.9-6.1,17.2-5.3c3.1,0.4,5.5,1.7,7.1,3.7c0.2,0.2,0.3,0.4,0.4,0.6
					C68.5,24.1,68.9,26.9,68.2,29.9z"/>
			</g>
			<path fill="#383838" d="M17.8,61.5l-13,9.7c-1.3,1-3.2,0.7-4.2-0.6l-0.1-0.1c-1-1.3-0.8-3.3,0.6-4.3l13-9.7
				c1.3-1,3.2-0.7,4.2,0.6l0.1,0.1C19.4,58.5,19.2,60.5,17.8,61.5z"/>
		</g>
		<polyline fill="none" stroke="#383838" stroke-width="2" stroke-miterlimit="10" points="34.3,45.4 67.1,21.8 67.8,21.3 		"/>
		<line fill="none" stroke="#383838" stroke-width="2" stroke-miterlimit="10" x1="40.9" y1="50.1" x2="70.3" y2="28.3"/>
		<line fill="none" stroke="#383838" stroke-width="2" stroke-miterlimit="10" x1="30.2" y1="39.9" x2="61.4" y2="16.4"/>
		<line fill="none" stroke="#383838" stroke-width="2" stroke-miterlimit="10" x1="34.6" y1="28.3" x2="51" y2="49.5"/>
		<line fill="none" stroke="#383838" stroke-width="2" stroke-miterlimit="10" x1="41.9" y1="20.9" x2="59.4" y2="45.6"/>
		<line fill="none" stroke="#383838" stroke-width="2" stroke-miterlimit="10" x1="50.6" y1="16.4" x2="66.4" y2="37.5"/>
	</g>
</g>
</svg>
