<?xml version="1.0" encoding="utf-8"?>
<!-- Generator: Adobe Illustrator 18.0.0, SVG Export Plug-In . SVG Version: 6.00 Build 0)  -->
<!DOCTYPE svg PUBLIC "-//W3C//DTD SVG 1.1//EN" "http://www.w3.org/Graphics/SVG/1.1/DTD/svg11.dtd">
<svg version="1.1" id="Layer_1" xmlns="http://www.w3.org/2000/svg" xmlns:xlink="http://www.w3.org/1999/xlink" x="0px" y="0px"
	 viewBox="0 0 72 72" enable-background="new 0 0 72 72" xml:space="preserve">
<g>
	<path fill="#383838" d="M45.3,42.1c0,5-4,9.1-8.9,9.1c-4.9,0-8.9-4.1-8.9-9.1c0-5,4-9.1,8.9-9.1C41.3,33,45.3,37.1,45.3,42.1z"/>
	<path fill="#383838" d="M64.4,40.3L46.5,21.1c-1.2-1.2-2.6-1.9-4-1.9H29.7c-1.5,0-2.9,0.7-4.1,1.9L8.3,40.1C6.8,41.7,6,44.1,6,46.7
		v9.7c0,4.7,2.9,8.6,6.4,8.6h48c3.6,0,6.4-3.8,6.4-8.6v-9.4C66.8,44.3,65.9,41.9,64.4,40.3z M36.4,57.2c-8.2,0-14.9-6.8-14.9-15.1
		c0-8.3,6.7-15.1,14.9-15.1c8.2,0,14.9,6.8,14.9,15.1C51.3,50.4,44.6,57.2,36.4,57.2z"/>
	<path fill="#383838" d="M21.6,71.4H17c-1.4,0-2.6-1.2-2.6-2.6v-0.1c0-1.4,1.2-2.6,2.6-2.6h4.6c1.4,0,2.6,1.2,2.6,2.6v0.1
		C24.2,70.3,23,71.4,21.6,71.4z"/>
	<path fill="#383838" d="M55.8,71.4h-4.6c-1.4,0-2.6-1.2-2.6-2.6v-0.1c0-1.4,1.2-2.6,2.6-2.6h4.6c1.4,0,2.6,1.2,2.6,2.6v0.1
		C58.4,70.3,57.3,71.4,55.8,71.4z"/>
	<path fill="#383838" d="M0.6,20.6c0,0-3.4,8.5,9.7,8.3s9.3-8.3,9.3-8.3s0-7.1,15.8-6.2s14.4,2,17.5,7.2c0,0-2,7.3,9.7,7.3
		s8.9-6.4,9.1-8.3s0.3-17.2-35.4-17S1,17.9,0.6,20.6z"/>
</g>
</svg>
